<svg width="240" height="240" viewBox="0 0 240 240" fill="none" xmlns="http://www.w3.org/2000/svg">
<rect x="20" y="20" width="200" height="200" rx="40" fill="url(#paint0_linear)"/>
<rect x="20" y="60" width="200" height="160" rx="40" fill="white" fill-opacity="0.3"/>
<rect x="60" y="20" width="160" height="200" rx="40" fill="white" fill-opacity="0.3"/>
<rect x="60" y="60" width="160" height="160" rx="40" fill="white" fill-opacity="0.3"/>
<mask id="mask0" mask-type="alpha" maskUnits="userSpaceOnUse" x="101" y="101" width="78" height="78">
<path d="M177.953 141.184C178.734 140.403 178.734 139.136 177.953 138.355L165.225 125.628C164.444 124.846 163.178 124.846 162.397 125.628C161.616 126.409 161.616 127.675 162.397 128.456L173.711 139.77L162.397 151.083C161.616 151.864 161.616 153.131 162.397 153.912C163.178 154.693 164.444 154.693 165.225 153.912L177.953 141.184ZM103 141.77L176.539 141.77L176.539 137.77L103 137.77L103 141.77Z" fill="black"/>
<path d="M101.586 138.355C100.805 139.136 100.805 140.403 101.586 141.184L114.314 153.912C115.095 154.693 116.361 154.693 117.142 153.912C117.923 153.131 117.923 151.864 117.142 151.083L105.828 139.77L117.142 128.456C117.923 127.675 117.923 126.408 117.142 125.627C116.361 124.846 115.095 124.846 114.314 125.627L101.586 138.355ZM115.977 137.77L103 137.77L103 141.77L115.977 141.77L115.977 137.77Z" fill="black"/>
<path d="M138.355 177.953C139.136 178.734 140.403 178.734 141.184 177.953L153.912 165.225C154.693 164.444 154.693 163.178 153.912 162.397C153.131 161.616 151.864 161.616 151.083 162.397L139.77 173.711L128.456 162.397C127.675 161.616 126.408 161.616 125.627 162.397C124.846 163.178 124.846 164.444 125.627 165.225L138.355 177.953ZM137.77 103L137.77 176.539L141.77 176.539L141.77 103L137.77 103Z" fill="black"/>
<path d="M141.184 101.586C140.403 100.805 139.136 100.805 138.355 101.586L125.627 114.314C124.846 115.095 124.846 116.361 125.627 117.142C126.408 117.923 127.675 117.923 128.456 117.142L139.77 105.828L151.083 117.142C151.864 117.923 153.131 117.923 153.912 117.142C154.693 116.361 154.693 115.095 153.912 114.314L141.184 101.586ZM141.77 115.977L141.77 103L137.77 103L137.77 115.977L141.77 115.977Z" fill="black"/>
</mask>
<g mask="url(#mask0)">
<rect x="60" y="60" width="160" height="160" rx="40" fill="url(#paint1_linear)"/>
</g>
<defs>
<linearGradient id="paint0_linear" x1="20" y1="120" x2="175.03" y2="120" gradientUnits="userSpaceOnUse">
<stop stop-color="#5C258D"/>
<stop offset="1" stop-color="#4389A2"/>
</linearGradient>
<linearGradient id="paint1_linear" x1="60" y1="140" x2="184.024" y2="140" gradientUnits="userSpaceOnUse">
<stop stop-color="#5C258D"/>
<stop offset="1" stop-color="#4389A2"/>
</linearGradient>
</defs>
</svg>
