<svg width="656" height="118" viewBox="0 0 656 118" fill="none" xmlns="http://www.w3.org/2000/svg">
<path d="M389.574 44.5352C389.574 31.918 399.75 25.6094 420.102 25.6094C441.508 25.6094 452.211 31.2148 452.211 42.4258C452.211 43.4414 451.879 44.3008 451.215 45.0039C450.551 45.668 449.691 46 448.637 46H439.906C437.094 46 434.73 44.8281 432.816 42.4844C430.902 40.1016 427.133 38.9102 421.508 38.9102C413.773 38.9102 409.906 40.7852 409.906 44.5352C409.906 46.293 411.41 47.7578 414.418 48.9297C417.465 50.1016 421.156 51.1367 425.492 52.0352C429.867 52.8945 434.223 54.0078 438.559 55.375C442.895 56.7422 446.566 58.9297 449.574 61.9375C452.621 64.9062 454.145 68.6758 454.145 73.2461C454.145 85.8633 443.402 92.1719 421.918 92.1719C400.434 92.1719 389.691 86.5859 389.691 75.4141C389.691 74.3594 390.023 73.5 390.688 72.8359C391.391 72.1328 392.27 71.7812 393.324 71.7812H402.055C404.867 71.7812 407.23 72.9727 409.145 75.3555C411.059 77.6992 414.828 78.8711 420.453 78.8711C429.398 78.8711 433.871 76.9961 433.871 73.2461C433.871 71.4883 432.348 70.0234 429.301 68.8516C426.293 67.6797 422.602 66.6445 418.227 65.7461C413.852 64.8086 409.496 63.6758 405.16 62.3477C400.863 60.9805 397.191 58.793 394.145 55.7852C391.098 52.7773 389.574 49.0273 389.574 44.5352ZM465.043 14.5352V12.543C465.043 10.4727 465.629 8.83203 466.801 7.62109C468.012 6.41016 469.672 5.80469 471.781 5.80469H479.047C481.117 5.80469 482.758 6.41016 483.969 7.62109C485.18 8.79297 485.785 10.4336 485.785 12.543V14.5352C485.785 16.6055 485.18 18.2461 483.969 19.457C482.797 20.668 481.156 21.2734 479.047 21.2734H471.781C469.711 21.2734 468.07 20.668 466.859 19.457C465.648 18.2461 465.043 16.6055 465.043 14.5352ZM465.277 87.4258V31.8203C465.277 30.7656 465.609 29.9062 466.273 29.2422C466.977 28.5781 467.836 28.2461 468.852 28.2461H481.977C483.031 28.2461 483.891 28.5977 484.555 29.3008C485.219 29.9648 485.551 30.8047 485.551 31.8203V87.4258C485.551 88.4805 485.199 89.3398 484.496 90.0039C483.832 90.668 482.992 91 481.977 91H468.852C467.797 91 466.938 90.668 466.273 90.0039C465.609 89.3398 465.277 88.4805 465.277 87.4258ZM495.98 37.3867V30.4141C495.98 29.3594 496.312 28.5 496.977 27.8359C497.68 27.1328 498.559 26.7812 499.613 26.7812H552.992C554.047 26.7812 554.906 27.1328 555.57 27.8359C556.234 28.5 556.566 29.3594 556.566 30.4141V36.0391C556.566 38.9297 555.18 41.7617 552.406 44.5352L520.473 76.8203H553.461C554.516 76.8203 555.375 77.1719 556.039 77.875C556.742 78.5391 557.094 79.3984 557.094 80.4531V87.4258C557.094 88.4414 556.742 89.3008 556.039 90.0039C555.375 90.668 554.516 91 553.461 91H499.613C498.559 91 497.68 90.668 496.977 90.0039C496.312 89.3008 495.98 88.4414 495.98 87.4258V81.7422C495.98 78.8906 497.387 76.0586 500.199 73.2461L531.02 40.9609H499.613C498.559 40.9609 497.68 40.6289 496.977 39.9648C496.312 39.2617 495.98 38.4023 495.98 37.3867ZM572.738 83.6172C566.723 77.9141 563.715 69.7109 563.715 59.0078C563.715 48.2656 566.742 40.0234 572.797 34.2812C578.852 28.5 587.25 25.6094 597.992 25.6094C608.734 25.6094 617.113 28.4219 623.129 34.0469C629.145 39.6328 632.152 47.6602 632.152 58.1289V61.4688C632.152 62.5234 631.801 63.4023 631.098 64.1055C630.434 64.7695 629.574 65.1016 628.52 65.1016H584.398C584.789 69.9062 586.156 73.4023 588.5 75.5898C590.883 77.7773 594.672 78.8711 599.867 78.8711C605.062 78.8711 608.617 77.6992 610.531 75.3555C612.445 73.0117 614.809 71.8203 617.621 71.7812H626.352C627.406 71.7812 628.266 72.1328 628.93 72.8359C629.633 73.5 629.984 74.3594 629.984 75.4141C629.984 86.625 619.301 92.2109 597.934 92.1719C587.152 92.1719 578.754 89.3203 572.738 83.6172ZM584.281 52.7383H611.527C611.137 43.5195 606.605 38.9102 597.934 38.9102C589.301 38.9102 584.75 43.5195 584.281 52.7383Z" fill="url(#paint0_linear)"/>
<path d="M32.8398 83.6172C26.8242 77.9141 23.8164 69.7109 23.8164 59.0078C23.8164 48.2656 26.8438 40.0234 32.8984 34.2812C38.9531 28.5 47.3516 25.6094 58.0938 25.6094C68.8359 25.6094 77.2148 28.4219 83.2305 34.0469C89.2461 39.6328 92.2539 47.6602 92.2539 58.1289V61.4688C92.2539 62.5234 91.9023 63.4023 91.1992 64.1055C90.5352 64.7695 89.6758 65.1016 88.6211 65.1016H44.5C44.8906 69.9062 46.2578 73.4023 48.6016 75.5898C50.9844 77.7773 54.7734 78.8711 59.9688 78.8711C65.1641 78.8711 68.7188 77.6992 70.6328 75.3555C72.5469 73.0117 74.9102 71.8203 77.7227 71.7812H86.4531C87.5078 71.7812 88.3672 72.1328 89.0312 72.8359C89.7344 73.5 90.0859 74.3594 90.0859 75.4141C90.0859 86.625 79.4023 92.2109 58.0352 92.1719C47.2539 92.1719 38.8555 89.3203 32.8398 83.6172ZM44.3828 52.7383H71.6289C71.2383 43.5195 66.707 38.9102 58.0352 38.9102C49.4023 38.9102 44.8516 43.5195 44.3828 52.7383ZM98.875 26.7812H110.125C111.805 26.7812 113.387 27.2695 114.871 28.2461C116.355 29.1836 117.41 30.4141 118.035 31.9375L134.031 68.4414L149.969 31.9375C150.594 30.4141 151.648 29.1836 153.133 28.2461C154.617 27.2695 156.199 26.7812 157.879 26.7812H169.188C170.555 26.7812 171.453 27.2891 171.883 28.3047C172.078 28.6953 172.156 29.2031 172.117 29.8281C172.117 30.4141 171.941 31.1172 171.59 31.9375L146.277 85.8438C145.574 87.3672 144.461 88.6172 142.938 89.5938C141.453 90.5312 139.91 91 138.309 91H129.695C128.094 91 126.551 90.5312 125.066 89.5938C123.582 88.6172 122.488 87.3672 121.785 85.8438L96.4727 31.9375C96.082 31.0781 95.8867 30.3555 95.8867 29.7695C95.8867 27.7773 96.8828 26.7812 98.875 26.7812ZM184.832 83.6172C178.816 77.9141 175.809 69.7109 175.809 59.0078C175.809 48.2656 178.836 40.0234 184.891 34.2812C190.945 28.5 199.344 25.6094 210.086 25.6094C220.828 25.6094 229.207 28.4219 235.223 34.0469C241.238 39.6328 244.246 47.6602 244.246 58.1289V61.4688C244.246 62.5234 243.895 63.4023 243.191 64.1055C242.527 64.7695 241.668 65.1016 240.613 65.1016H196.492C196.883 69.9062 198.25 73.4023 200.594 75.5898C202.977 77.7773 206.766 78.8711 211.961 78.8711C217.156 78.8711 220.711 77.6992 222.625 75.3555C224.539 73.0117 226.902 71.8203 229.715 71.7812H238.445C239.5 71.7812 240.359 72.1328 241.023 72.8359C241.727 73.5 242.078 74.3594 242.078 75.4141C242.078 86.625 231.395 92.2109 210.027 92.1719C199.246 92.1719 190.848 89.3203 184.832 83.6172ZM196.375 52.7383H223.621C223.23 43.5195 218.699 38.9102 210.027 38.9102C201.395 38.9102 196.844 43.5195 196.375 52.7383ZM299.441 41.6641L290.418 41.3125C285.145 41.3125 280.105 44.2031 275.301 49.9844V87.4258C275.301 88.4805 274.949 89.3398 274.246 90.0039C273.582 90.668 272.742 91 271.727 91H258.602C257.547 91 256.688 90.668 256.023 90.0039C255.359 89.3398 255.027 88.4805 255.027 87.4258V30.4141C255.027 29.3594 255.359 28.5 256.023 27.8359C256.727 27.1328 257.586 26.7812 258.602 26.7812H271.727C272.781 26.7812 273.641 27.1328 274.305 27.8359C274.969 28.5 275.301 29.3594 275.301 30.4141V34.1055C279.285 31.2148 283.113 29.0859 286.785 27.7188C290.496 26.3125 295.34 25.6094 301.316 25.6094C302.371 25.6094 303.23 25.9609 303.895 26.6641C304.598 27.3281 304.949 28.168 304.949 29.1836V38.0898C304.949 39.1445 304.598 40.0039 303.895 40.668C303.23 41.332 302.371 41.6641 301.316 41.6641H299.441ZM325.867 97.0938L333.543 98.0898C339.051 98.0898 342.898 94.0469 345.086 85.9609C338.445 85.9609 332.898 83.9688 328.445 79.9844C323.992 75.9609 320.164 68.832 316.961 58.5977L308.23 30.2969C308.113 29.9844 308.055 29.6328 308.055 29.2422C308.055 28.8125 308.289 28.3047 308.758 27.7188C309.266 27.1328 310.008 26.8203 310.984 26.7812H323.23C324.363 26.7812 325.438 27.1719 326.453 27.9531C327.508 28.6953 328.191 29.6328 328.504 30.7656L336.18 55.6094C338.094 61.7031 340.027 65.9219 341.98 68.2656C343.973 70.6094 346.316 71.7812 349.012 71.7812L360.672 30.7656C360.984 29.6328 361.59 28.6953 362.488 27.9531C363.426 27.1719 364.461 26.7812 365.594 26.7812H377.957C378.934 26.7812 379.656 27.0937 380.125 27.7188C380.594 28.3438 380.828 28.8711 380.828 29.3008C380.828 29.6914 380.789 30.0234 380.711 30.2969L365.359 85.0234C362.625 94.7109 359.227 101.625 355.164 105.766C351.141 109.906 345.945 111.977 339.578 111.977C333.211 111.977 328.699 111.742 326.043 111.273C323.426 110.805 321.785 110.219 321.121 109.516C320.457 108.852 320.125 108.07 320.125 107.172V100.727C320.125 99.6719 320.457 98.793 321.121 98.0898C321.785 97.4258 322.645 97.0938 323.699 97.0938H325.867Z" fill="#444444"/>
<defs>
<linearGradient id="paint0_linear" x1="386" y1="48" x2="579.787" y2="48" gradientUnits="userSpaceOnUse">
<stop stop-color="#5C258D"/>
<stop offset="1" stop-color="#4389A2"/>
</linearGradient>
</defs>
</svg>
